# Blender v2.93.4 OBJ File: 'umbrella.blend'
# www.blender.org
o Cube_Cube.001
v -0.025789 0.003092 0.020504
v -0.025789 2.119947 0.020504
v -0.025789 0.003092 -0.026915
v -0.025789 2.119947 -0.026915
v 0.025789 0.003092 0.020504
v 0.025789 2.119947 0.020504
v 0.025789 0.003092 -0.026915
v 0.025789 2.119947 -0.026915
v 0.000000 1.266473 -1.000000
v 0.642788 1.266473 -0.766044
v 0.984808 1.266473 -0.173648
v 0.866025 1.266473 0.500000
v 0.342020 1.266473 0.939693
v -0.342020 1.266473 0.939693
v -0.866025 1.266473 0.500000
v -0.984808 1.266473 -0.173648
v -0.642788 1.266473 -0.766044
v 0.000000 2.176276 0.000000
vt 0.909970 0.580740
vt 0.813621 0.677089
vt 0.813621 0.580740
vt 0.909970 0.677089
vt 0.813621 0.773438
vt 0.909970 0.773438
vt 0.813621 0.869786
vt 0.909970 0.869786
vt 0.813621 0.966135
vt 0.717272 0.869786
vt 0.717272 0.773438
vt 0.989759 0.771932
vt 0.386719 0.743318
vt 0.386719 0.387121
vt 0.615677 0.659984
vt 0.737504 0.448974
vt 0.695194 0.209023
vt 0.508545 0.052406
vt 0.264892 0.052406
vt 0.078243 0.209023
vt 0.035934 0.448974
vt 0.157760 0.659984
vt 0.909970 0.966135
vt 0.989759 0.868281
vn -1.0000 0.0000 0.0000
vn 0.0000 0.0000 -1.0000
vn 1.0000 0.0000 0.0000
vn 0.0000 0.0000 1.0000
vn 0.0000 -1.0000 0.0000
vn 0.0000 1.0000 0.0000
vn 0.2379 0.7184 -0.6536
vn 0.6024 0.7184 -0.3478
vn 0.6850 0.7184 0.1208
vn 0.4471 0.7184 0.5329
vn 0.0000 0.7184 0.6956
vn -0.4471 0.7184 0.5329
vn -0.6850 0.7184 0.1208
vn -0.6024 0.7184 -0.3478
vn -0.2379 0.7184 -0.6536
s off
f 2/1/1 3/2/1 1/3/1
f 4/4/2 7/5/2 3/2/2
f 8/6/3 5/7/3 7/5/3
f 6/8/4 1/9/4 5/7/4
f 7/5/5 1/10/5 3/11/5
f 4/12/6 6/8/6 8/6/6
f 9/13/7 18/14/7 10/15/7
f 10/15/8 18/14/8 11/16/8
f 11/16/9 18/14/9 12/17/9
f 12/17/10 18/14/10 13/18/10
f 13/18/11 18/14/11 14/19/11
f 14/19/12 18/14/12 15/20/12
f 15/20/13 18/14/13 16/21/13
f 16/21/14 18/14/14 17/22/14
f 17/22/15 18/14/15 9/13/15
f 2/1/1 4/4/1 3/2/1
f 4/4/2 8/6/2 7/5/2
f 8/6/3 6/8/3 5/7/3
f 6/8/4 2/23/4 1/9/4
f 7/5/5 5/7/5 1/10/5
f 4/12/6 2/24/6 6/8/6
